<svg width="54" height="24" viewBox="0 0 54 24" fill="none" xmlns="http://www.w3.org/2000/svg">
<g clip-path="url(#clip0_915_1473)">
<path d="M30.5 9.60718C30.5 8.54631 30.0786 7.5289 29.3284 6.77875C28.5783 6.0286 27.5609 5.60718 26.5 5.60718C25.4391 5.60718 24.4217 6.0286 23.6716 6.77875C22.9214 7.5289 22.5 8.54631 22.5 9.60718C22.5 10.668 22.9214 11.6855 23.6716 12.4356C24.4217 13.1858 25.4391 13.6072 26.5 13.6072C27.5609 13.6072 28.5783 13.1858 29.3284 12.4356C30.0786 11.6855 30.5 10.668 30.5 9.60718ZM26.5 7.10718C27.163 7.10718 27.7989 7.37057 28.2678 7.83941C28.7366 8.30825 29 8.94414 29 9.60718C29 10.2702 28.7366 10.9061 28.2678 11.3749C27.7989 11.8438 27.163 12.1072 26.5 12.1072C25.837 12.1072 25.2011 11.8438 24.7322 11.3749C24.2634 10.9061 24 10.2702 24 9.60718C24 8.94414 24.2634 8.30825 24.7322 7.83941C25.2011 7.37057 25.837 7.10718 26.5 7.10718Z" fill="black"/>
<path d="M31.9649 16.0872C31.9629 16.0872 31.9618 16.0849 31.963 16.0833L32.42 15.4872C33.3614 14.331 34.111 13.0311 34.64 11.6372C34.87 10.8872 35 10.0972 35 9.27718C35 4.76718 31.2 1.10718 26.5 1.10718C21.8 1.10718 18 4.76718 18 9.27718C18 10.0972 18.13 10.8972 18.36 11.6472C18.61 12.4172 19.08 13.3272 19.8 14.3872L20.17 14.9272C20.44 15.2972 20.73 15.6872 21.05 16.0872L21.54 16.7072L22.07 17.3472L22.65 18.0072L23.25 18.7072L23.91 19.4072L24.61 20.1572L25.33 20.9172L25.45 21.0372L25.71 21.3072L26.11 21.7072C26.3309 21.9281 26.6891 21.9281 26.91 21.7072V21.7072L27.67 20.9072L28.4 20.1472L29.1 19.4072L29.43 19.0472L30.06 18.3472L30.66 17.6672L31.2 17.0172C31.3 16.9172 31.38 16.8072 31.47 16.6972L31.9668 16.0911C31.9681 16.0895 31.9669 16.0872 31.9649 16.0872V16.0872ZM26.5 2.60718C30.42 2.60718 33.5 5.64718 33.5 9.27718C33.5028 9.92252 33.4015 10.5641 33.2 11.1772C32.96 11.9572 32.35 13.0772 31.22 14.5772L30.78 15.1572L30.3 15.7572L30.06 16.0572L29.51 16.6972L28.94 17.3472L28.31 18.0472L28 18.3872L27.31 19.1172L26.59 19.8672V19.8672C26.5419 19.9206 26.4581 19.9206 26.41 19.8672V19.8672L25.69 19.1172L25.01 18.3972L24.37 17.6972L23.77 17.0272L23.21 16.3672C23.0416 16.1686 22.875 15.9686 22.71 15.7672L22.22 15.1572C21.92 14.7772 21.65 14.4072 21.4 14.0572L21.04 13.5372C20.5187 12.8178 20.0981 12.0305 19.79 11.1972C19.5958 10.5758 19.498 9.92824 19.5 9.27718C19.5 5.64718 22.58 2.60718 26.5 2.60718Z" fill="black"/>
</g>
<defs>
<clipPath id="clip0_915_1473">
<rect width="24" height="24" fill="white" transform="translate(15)"/>
</clipPath>
</defs>
</svg>
